<svg xmlns="http://www.w3.org/2000/svg" width="193.5783" height="43.3527" viewBox="0 0 193.5783 43.3527"><defs><style>.cls-1{fill:#f8a4bd;}.cls-2{fill:none;stroke:#f8a4bd;stroke-miterlimit:10;stroke-width:4px;}</style></defs><g id="Layer_2" data-name="Layer 2"><g id="Layer_1-2" data-name="Layer 1"><g id="Layer_2-2" data-name="Layer 2"><g id="Layer_1-2-2" data-name="Layer 1-2"><rect x="2" y="2.1698" width="189.5783" height="39.3527"/><path class="cls-1" d="M24.3374,30.8476H13.8186v-18.55h9.7058a4.778,4.778,0,0,1,1.0877.1309,5.6638,5.6638,0,0,1,1.1.3827,6.2951,6.2951,0,0,1,1.0039.5853,4.2065,4.2065,0,0,1,.8008.7412,5.3572,5.3572,0,0,1,.9205,1.6017,5.2672,5.2672,0,0,1,.3227,1.8167,5.1376,5.1376,0,0,1-.43,2.0678,5.0265,5.0265,0,0,1-1.2431,1.7334,4.93,4.93,0,0,1,.9684.8129,5.2,5.2,0,0,1,.7529,1.0522,5.8829,5.8829,0,0,1,.49,1.2073,4.5048,4.5048,0,0,1,.18,1.2306,5.1217,5.1217,0,0,1-.3948,1.9961,5.0669,5.0669,0,0,1-1.0993,1.65A5.4453,5.4453,0,0,1,26.3462,30.43,4.84,4.84,0,0,1,24.3374,30.8476ZM22.0182,16.0258H18.6953v3.7778h3.3229a1.889,1.889,0,0,0,0-3.7778Zm.1676,7.1478H18.6953v3.7537h3.4905a1.8783,1.8783,0,0,0,1.8885-1.868v-.0205a1.7948,1.7948,0,0,0-.55-1.3149A1.8219,1.8219,0,0,0,22.1858,23.1736Z"/><path class="cls-1" d="M33.9867,30.8476v-18.55h5.14v13.96H48.88v4.59Z"/><polygon class="cls-1" points="62.857 12.297 58.482 12.297 51.621 30.848 56.856 30.848 60.681 19.062 64.482 30.848 69.717 30.848 62.857 12.297"/><path class="cls-1" d="M75.196,30.4291a10.4053,10.4053,0,0,1-3.5022-2.809l3.9446-3.2033a5.3585,5.3585,0,0,0,1.7329,1.4824,4.4958,4.4958,0,0,0,2.1395.5261,4.3446,4.3446,0,0,0,1.8526-.3943,4.7679,4.7679,0,0,0,1.47-1.0523,4.9117,4.9117,0,0,0,.98-1.53,4.8206,4.8206,0,0,0,.3586-1.8526,4.76,4.76,0,0,0-.3586-1.8285,5.08,5.08,0,0,0-.98-1.5425,4.4854,4.4854,0,0,0-1.4821-1.0513,4.5339,4.5339,0,0,0-1.8647-.3827,4.9784,4.9784,0,0,0-2.9165.98l-3.8249-3.3467a10.7435,10.7435,0,0,1,3.18-1.9718,9.6493,9.6493,0,0,1,3.5856-.6812,9.4926,9.4926,0,0,1,3.837.777,9.8167,9.8167,0,0,1,3.1078,2.127,10.15,10.15,0,0,1,2.0915,3.1316,9.7661,9.7661,0,0,1,0,7.5781,10.1118,10.1118,0,0,1-2.0915,3.1316,9.7921,9.7921,0,0,1-3.1078,2.1278,9.4894,9.4894,0,0,1-3.837.7771A9.6628,9.6628,0,0,1,75.196,30.4291Z"/><path class="cls-1" d="M101.38,21.07l7.3388,9.7775h-6.0239l-5.0922-6.239v6.239h-5.092v-18.55h5.0919v6.239l5.0922-6.239h6.2632Z"/><path class="cls-1" d="M121.5952,25.0863h-3.3709v5.7613h-4.9717v-18.55h8.3426a7.3693,7.3693,0,0,1,2.57.4535,7.0371,7.0371,0,0,1,2.1753,1.2674,6.1041,6.1041,0,0,1,1.5066,1.96,5.6357,5.6357,0,0,1,.5619,2.5105,5.9953,5.9953,0,0,1-.5619,2.5814A6.9236,6.9236,0,0,1,126.34,23.162a7.0971,7.0971,0,0,1-2.1753,1.4107A6.605,6.605,0,0,1,121.5952,25.0863Zm-.3585-8.6537h-2.8923v3.9921h2.8923a2.1433,2.1433,0,0,0,.8129-.1542,2.0913,2.0913,0,0,0,1.1231-1.0572,1.9182,1.9182,0,0,0,0-1.5684,2.1028,2.1028,0,0,0-.4536-.63,2.13,2.13,0,0,0-.6695-.4277A2.1576,2.1576,0,0,0,121.2367,16.4326Z"/><path class="cls-1" d="M132.3931,30.8476v-18.55h4.9959v18.55Z"/><path class="cls-1" d="M141.7006,30.8234V12.2972h4.9726V22.289l6.4542-9.9918h4.925V30.8234H153.104V20.9266l-6.4308,9.8968Z"/><path class="cls-1" d="M171.9212,21.07l7.3388,9.7775h-6.0239l-5.0918-6.239v6.239h-5.0919v-18.55h5.0919v6.239l5.0918-6.239h6.2632Z"/><rect class="cls-2" x="2" y="2" width="189.5783" height="39.3527"/></g></g></g></g></svg>